<svg xmlns="http://www.w3.org/2000/svg" xmlns:xlink="http://www.w3.org/1999/xlink" viewBox="0 0 927.37 654.92"><defs><style>.cls-1{fill:url(#linear-gradient-2);}.cls-2{fill:url(#linear-gradient-17);}.cls-3{fill:#23216f;}.cls-4{fill:#08003c;}.cls-5{opacity:.39;}.cls-5,.cls-6{fill:#fff;mix-blend-mode:soft-light;}.cls-7{fill:#a29dc8;}.cls-8{fill:#5ebad7;}.cls-9{fill:#f4ba94;}.cls-10{fill:url(#linear-gradient-15);}.cls-11{fill:url(#linear-gradient-18);}.cls-12{fill:url(#linear-gradient-14);}.cls-13{fill:url(#linear-gradient-20);}.cls-14{fill:url(#linear-gradient-6);}.cls-15{isolation:isolate;}.cls-16,.cls-17{fill:#181455;}.cls-18{fill:#594e82;}.cls-18,.cls-19,.cls-17,.cls-20,.cls-21{mix-blend-mode:multiply;}.cls-22{fill:url(#linear-gradient-11);}.cls-23{fill:#766fab;}.cls-24{fill:url(#linear-gradient-10);}.cls-25{fill:#b1afd3;}.cls-19{opacity:.8;}.cls-19,.cls-26,.cls-21{fill:#48417d;}.cls-27{fill:url(#linear-gradient-16);}.cls-28{fill:#8580b6;}.cls-29{fill:#928bbd;}.cls-30{fill:url(#linear-gradient-21);}.cls-31{fill:url(#linear-gradient-5);}.cls-32{fill:url(#linear-gradient-7);}.cls-33{fill:#002b63;}.cls-34{fill:none;stroke:#5ebad7;stroke-miterlimit:10;stroke-width:1.34px;}.cls-35{fill:url(#linear-gradient-9);}.cls-36{fill:url(#linear-gradient-3);}.cls-37{fill:#938fc0;}.cls-38{fill:#e29d76;}.cls-39{fill:url(#linear-gradient);}.cls-40{fill:url(#linear-gradient-19);}.cls-41{fill:url(#linear-gradient-4);}.cls-42{fill:url(#linear-gradient-8);}.cls-43{fill:#191556;}.cls-44{fill:url(#linear-gradient-12);}.cls-45{fill:url(#linear-gradient-13);}</style><linearGradient id="linear-gradient" x1="502.73" y1="410.59" x2="551.74" y2="384.43" gradientTransform="matrix(1, 0, 0, 1, 0, 0)" gradientUnits="userSpaceOnUse"><stop offset="0" stop-color="#2f328b"></stop><stop offset=".83" stop-color="#6c69a9"></stop><stop offset="1" stop-color="#7a75b0"></stop></linearGradient><linearGradient id="linear-gradient-2" x1="656.29" y1="436.9" x2="656.29" y2="355.78" gradientTransform="matrix(1, 0, 0, 1, 0, 0)" gradientUnits="userSpaceOnUse"><stop offset="0" stop-color="#9085b9"></stop><stop offset="1" stop-color="#c6c3e0"></stop></linearGradient><linearGradient id="linear-gradient-3" x1="482.35" y1="337.72" x2="730.34" y2="331.89" gradientTransform="matrix(1, 0, 0, 1, 0, 0)" gradientUnits="userSpaceOnUse"><stop offset="0" stop-color="#786fac"></stop><stop offset="1" stop-color="#b1b2d6"></stop></linearGradient><linearGradient id="linear-gradient-4" x1="452.86" y1="315.13" x2="502.96" y2="288.38" xlink:href="#linear-gradient"></linearGradient><linearGradient id="linear-gradient-5" x1="562.89" y1="362.81" x2="562.89" y2="214.77" xlink:href="#linear-gradient-2"></linearGradient><linearGradient id="linear-gradient-6" x1="476.11" y1="189.49" x2="640.67" y2="185.62" gradientTransform="matrix(1, 0, 0, 1, 0, 0)" gradientUnits="userSpaceOnUse"><stop offset="0" stop-color="#b1b2d6"></stop><stop offset="1" stop-color="#786fac"></stop></linearGradient><linearGradient id="linear-gradient-7" x1="253.54" y1="415.35" x2="428.45" y2="321.98" xlink:href="#linear-gradient"></linearGradient><linearGradient id="linear-gradient-8" x1="477.64" y1="539.25" x2="477.64" y2="362.44" xlink:href="#linear-gradient-2"></linearGradient><linearGradient id="linear-gradient-9" x1="255.59" y1="234.22" x2="513.74" y2="228.15" xlink:href="#linear-gradient-3"></linearGradient><linearGradient id="linear-gradient-10" x1="442.09" y1="385.29" x2="497" y2="405.96" gradientTransform="matrix(1, 0, 0, 1, 0, 0)" gradientUnits="userSpaceOnUse"><stop offset=".07" stop-color="#2f328b"></stop><stop offset=".43" stop-color="#51509c"></stop><stop offset=".79" stop-color="#6e6baa"></stop><stop offset="1" stop-color="#7a75b0"></stop></linearGradient><linearGradient id="linear-gradient-11" x1="502.96" y1="429.76" x2="443.31" y2="469.04" gradientTransform="matrix(1, 0, 0, 1, 0, 0)" gradientUnits="userSpaceOnUse"><stop offset=".13" stop-color="#2f328b"></stop><stop offset=".46" stop-color="#51509c"></stop><stop offset=".8" stop-color="#6e6baa"></stop><stop offset="1" stop-color="#7a75b0"></stop></linearGradient><linearGradient id="linear-gradient-12" x1="505.31" y1="432.43" x2="505.31" y2="318.02" xlink:href="#linear-gradient-10"></linearGradient><linearGradient id="linear-gradient-13" x1="323.92" y1="275.71" x2="396.89" y2="236.76" xlink:href="#linear-gradient"></linearGradient><linearGradient id="linear-gradient-14" x1="464.36" y1="310.08" x2="464.36" y2="276.39" xlink:href="#linear-gradient-2"></linearGradient><linearGradient id="linear-gradient-15" x1="291.95" y1="232.28" x2="488.83" y2="227.65" xlink:href="#linear-gradient-3"></linearGradient><linearGradient id="linear-gradient-16" x1="102.6" y1="485.86" x2="312.08" y2="374.03" xlink:href="#linear-gradient"></linearGradient><linearGradient id="linear-gradient-17" x1="317.27" y1="660.77" x2="317.27" y2="369.66" xlink:href="#linear-gradient-2"></linearGradient><linearGradient id="linear-gradient-18" x1="156.17" y1="206.21" x2="364.19" y2="201.31" xlink:href="#linear-gradient-3"></linearGradient><linearGradient id="linear-gradient-19" x1="205.82" y1="240.49" x2="245.67" y2="219.22" xlink:href="#linear-gradient"></linearGradient><linearGradient id="linear-gradient-20" x1="299.83" y1="260.93" x2="299.83" y2="221.69" xlink:href="#linear-gradient-2"></linearGradient><linearGradient id="linear-gradient-21" x1="190.39" y1="201.02" x2="331.71" y2="197.7" xlink:href="#linear-gradient-2"></linearGradient></defs><g class="cls-15"><g id="Layer_2"><g id="Layer_1-2"><g><g><line class="cls-34" x1=".39" y1="319.05" x2="453.35" y2=".55"></line><line class="cls-34" x1="474.02" y1="651.73" x2="926.99" y2="333.23"></line><line class="cls-34" x1="21.33" y1="333.26" x2="474.29" y2="14.76"></line><line class="cls-34" x1="41.75" y1="348.08" x2="494.61" y2="29.41"></line><line class="cls-34" x1="62.14" y1="362.39" x2="515.08" y2="43.95"></line><line class="cls-34" x1="82.86" y1="376.93" x2="535.85" y2="58.28"></line><line class="cls-34" x1="103.34" y1="391.31" x2="556.23" y2="72.87"></line><line class="cls-34" x1="124.02" y1="405.82" x2="576.8" y2="87.34"></line><line class="cls-34" x1="144.71" y1="420.34" x2="597.38" y2="101.81"></line><line class="cls-34" x1="165.31" y1="434.8" x2="617.96" y2="116.28"></line><line class="cls-34" x1="185.65" y1="449.18" x2="638.61" y2="130.68"></line><line class="cls-34" x1="206.43" y1="463.66" x2="659.11" y2="145.21"></line><line class="cls-34" x1="226.96" y1="478.07" x2="679.68" y2="159.67"></line><line class="cls-34" x1="247.51" y1="492.5" x2="700.26" y2="174.13"></line><line class="cls-34" x1="268.17" y1="507" x2="720.84" y2="188.6"></line><line class="cls-34" x1="288.67" y1="521.39" x2="741.41" y2="203.07"></line><line class="cls-34" x1="309.25" y1="535.84" x2="761.99" y2="217.53"></line><line class="cls-34" x1="330.16" y1="550.51" x2="782.56" y2="232"></line><line class="cls-34" x1="350.56" y1="564.83" x2="803.07" y2="246.58"></line><line class="cls-34" x1="371.16" y1="579.28" x2="823.64" y2="261.04"></line><line class="cls-34" x1="391.72" y1="593.71" x2="844.22" y2="275.51"></line><line class="cls-34" x1="412.29" y1="608.15" x2="864.8" y2="289.98"></line><line class="cls-34" x1="432.92" y1="622.63" x2="885.37" y2="304.44"></line><line class="cls-34" x1="453.43" y1="637.03" x2="905.95" y2="318.91"></line></g><g><line class="cls-34" x1="926.89" y1="333.45" x2="453.25" y2=".76"></line><line class="cls-34" x1="474.02" y1="651.73" x2=".39" y2="319.05"></line><line class="cls-34" x1="905.95" y1="347.65" x2="432.31" y2="14.98"></line><line class="cls-34" x1="885.52" y1="362.48" x2="412" y2="29.62"></line><line class="cls-34" x1="865.13" y1="376.79" x2="391.52" y2="44.17"></line><line class="cls-34" x1="844.42" y1="391.33" x2="370.75" y2="58.49"></line><line class="cls-34" x1="823.93" y1="405.7" x2="350.41" y2="73.08"></line><line class="cls-34" x1="803.25" y1="420.22" x2="329.83" y2="87.54"></line><line class="cls-34" x1="782.56" y1="434.74" x2="309.26" y2="102.01"></line><line class="cls-34" x1="761.96" y1="449.2" x2="288.68" y2="116.48"></line><line class="cls-34" x1="741.62" y1="463.58" x2="268.02" y2="130.88"></line><line class="cls-34" x1="720.85" y1="478.05" x2="247.53" y2="145.4"></line><line class="cls-34" x1="700.31" y1="492.47" x2="226.95" y2="159.87"></line><line class="cls-34" x1="679.76" y1="506.89" x2="205.97" y2="174.08"></line><line class="cls-34" x1="659.11" y1="521.39" x2="185.39" y2="188.55"></line><line class="cls-34" x1="638.6" y1="535.78" x2="164.82" y2="203.01"></line><line class="cls-34" x1="618.02" y1="550.23" x2="144.24" y2="217.47"></line><line class="cls-34" x1="597.11" y1="564.9" x2="123.67" y2="231.94"></line><line class="cls-34" x1="576.71" y1="579.22" x2="103.09" y2="246.4"></line><line class="cls-34" x1="556.12" y1="593.68" x2="82.51" y2="260.87"></line><line class="cls-34" x1="535.56" y1="608.11" x2="61.94" y2="275.34"></line><line class="cls-34" x1="514.98" y1="622.55" x2="41.36" y2="289.81"></line><line class="cls-34" x1="494.35" y1="637.03" x2="20.79" y2="304.27"></line></g></g><g><g><g><g><g><path class="cls-39" d="M571.68,434.43c-7.96-5.85-60.29-42.06-81.4-56.83-2.1-1.47-4.53-3.24-6.13-4.35-5.2-3.62-3.59-13.41-3.59-13.41l93.18,65.36v10.07s-.92,0-2.06-.84Z"></path><path class="cls-1" d="M575.61,434.55c11.77-8.26,121.55-85.62,159.27-112.07,5.33-3.74,3.74-12.93,3.74-12.93l-164.87,115.66v10.07c.45,0,1.19-.24,1.87-.72Z"></path><polygon class="cls-36" points="645.34 244.24 645.34 244.24 645.34 244.24 645.34 244.24 480.56 359.86 573.75 425.22 573.75 425.22 573.75 425.22 573.75 425.22 738.62 309.56 645.34 244.24"></polygon><polygon class="cls-6" points="644.85 251.11 644.85 251.11 644.85 251.11 644.85 251.11 492.25 358.28 543.44 394.35 543.44 394.36 543.44 394.36 543.44 394.35 696.11 287.16 644.85 251.11"></polygon><polygon class="cls-6" points="651.5 325.73 601.55 361.29 628.47 380.26 628.47 380.26 628.47 380.26 628.47 380.26 678.45 344.68 651.5 325.73"></polygon></g><path class="cls-41" d="M480.57,359.84s-5.58-.2-5.58-5.91v-107.71c0-1.17,.86-2.85,.86-2.85l4.72,2.61v113.87Z"></path><polygon class="cls-31" points="480.57 359.84 645.21 244.24 645.21 130.37 480.57 245.96 480.57 359.84"></polygon><polygon class="cls-21" points="480.57 359.84 645.21 244.24 645.21 130.37 480.57 245.96 480.57 359.84"></polygon><path class="cls-14" d="M633.34,131.9c-36.11,25.26-139.79,98.2-154.89,108.54-2.08,1.42-2.61,2.92-2.61,2.92l4.72,2.63h0l164.64-115.59s-4.08-3.94-11.87,1.51Z"></path><polygon class="cls-18" points="487.17 347.34 640 240.07 640 142 487.17 249.27 487.17 347.34"></polygon><polygon class="cls-5" points="569.89 191.47 487.54 249.27 487.54 347.34 639.83 240.45 569.89 191.47"></polygon><polygon class="cls-5" points="486.82 347.2 634.24 243.72 593.46 215.04 486.82 289.92 486.82 347.2"></polygon><polygon class="cls-5" points="487.54 277.45 534.86 243.77 515.14 229.9 487.54 249.27 487.54 277.45"></polygon></g><g class="cls-20"><polygon class="cls-26" points="558.39 417.58 570.78 426.34 570.78 430.18 558.39 421.41 558.39 417.58"></polygon><polygon class="cls-26" points="542.26 406.18 554.65 414.95 554.65 418.78 542.26 410.02 542.26 406.18"></polygon><polygon class="cls-26" points="505.45 380.43 536.46 402.2 536.46 406.03 505.45 384.27 505.45 380.43"></polygon><polygon class="cls-26" points="483.29 364.92 495.68 373.69 495.68 377.52 483.29 368.76 483.29 364.92"></polygon></g></g><g><g><polygon class="cls-32" points="431.59 535.69 252.4 410.01 252.4 200.56 431.59 326.25 431.59 535.69"></polygon><polygon class="cls-42" points="431.59 535.69 523.69 471.09 523.69 261.65 431.59 326.25 431.59 535.69"></polygon><polygon class="cls-35" points="344.49 135.91 344.49 135.9 344.49 135.9 344.49 135.91 252.4 200.61 431.59 326.3 431.59 326.3 431.59 326.3 431.59 326.3 523.69 261.7 344.49 135.91"></polygon></g><g><polygon class="cls-24" points="445.15 475.28 510.13 429.71 510.13 322.06 445.15 367.64 445.15 475.28"></polygon><polygon class="cls-21" points="445.15 475.28 500.49 436.47 500.49 424.23 445.15 385.41 445.15 475.28"></polygon><polygon class="cls-22" points="447.27 473.78 500.49 436.47 500.49 424.04 447.27 461.36 447.27 473.78"></polygon><polygon class="cls-44" points="500.49 328.82 500.49 436.47 510.13 429.71 510.13 322.06 500.49 328.82"></polygon><g><polygon class="cls-33" points="447.27 366.06 445.15 367.64 445.15 475.28 447.27 473.71 447.27 366.06"></polygon><polygon class="cls-33" points="445.15 370.23 510.13 324.69 510.13 322.06 445.15 367.6 445.15 370.23"></polygon></g></g><polygon class="cls-19" points="445.15 475.28 510.13 429.71 510.13 322.06 445.15 367.64 445.15 475.28"></polygon><g><g><polygon class="cls-45" points="432.22 309.4 289.42 209.74 289.42 202.62 432.22 302.28 432.22 309.4"></polygon><polygon class="cls-12" points="432.22 309.4 496.51 264.31 496.51 257.19 432.22 302.28 432.22 309.4"></polygon><polygon class="cls-10" points="353.71 157.48 353.71 157.48 353.71 157.48 353.71 157.48 289.42 202.65 432.22 302.31 432.22 302.32 432.22 302.32 432.22 302.31 496.51 257.22 353.71 157.48"></polygon></g><g><g><polygon class="cls-21" points="361.83 171.84 361.83 171.84 361.83 171.84 361.83 171.84 308.95 208.95 313.03 211.81 313.03 211.81 313.03 211.81 313.03 211.81 365.92 174.69 361.83 171.84"></polygon><polygon class="cls-21" points="368.93 176.77 368.93 176.77 368.93 176.77 368.93 176.77 316.05 213.88 320.13 216.74 320.13 216.74 320.13 216.74 320.13 216.74 373.02 179.62 368.93 176.77"></polygon><polygon class="cls-21" points="376.03 181.79 376.03 181.79 376.03 181.79 376.03 181.79 323.15 218.91 327.23 221.76 327.23 221.76 327.23 221.76 327.23 221.76 380.12 184.65 376.03 181.79"></polygon></g><g><polygon class="cls-21" points="409.86 205.74 409.86 205.74 409.86 205.74 409.86 205.74 357.17 242.7 361.25 245.55 361.25 245.55 361.25 245.55 361.25 245.55 413.95 208.59 409.86 205.74"></polygon><polygon class="cls-21" points="416.96 210.73 416.96 210.73 416.96 210.73 416.96 210.73 364.22 247.67 368.31 250.52 368.31 250.52 368.31 250.52 368.31 250.52 421.05 213.58 416.96 210.73"></polygon><polygon class="cls-21" points="424.06 215.73 424.06 215.73 424.06 215.73 424.06 215.73 371.18 252.84 375.27 255.7 375.27 255.7 375.27 255.7 375.27 255.7 428.15 218.58 424.06 215.73"></polygon></g><g><polygon class="cls-21" points="459.6 240.41 459.6 240.41 459.6 240.41 459.6 240.41 406.72 277.53 410.8 280.38 410.8 280.38 410.8 280.38 410.8 280.38 463.69 243.26 459.6 240.41"></polygon><polygon class="cls-21" points="466.71 245.41 466.71 245.41 466.71 245.41 466.71 245.41 413.82 282.52 417.91 285.38 417.91 285.38 417.91 285.38 417.91 285.38 470.79 248.26 466.71 245.41"></polygon><polygon class="cls-21" points="473.81 250.4 473.81 250.4 473.81 250.4 473.81 250.4 420.92 287.52 425.01 290.37 425.01 290.37 425.01 290.37 425.01 290.37 477.89 253.26 473.81 250.4"></polygon></g></g></g><g><g><polygon class="cls-8" points="494.37 342.81 483.07 350.74 483.07 354.9 494.37 346.98 494.37 342.81"></polygon><polygon class="cls-8" points="497.1 340.9 497.1 345.06 500.29 342.83 500.29 338.65 497.1 340.9"></polygon><polygon class="cls-8" points="481.12 352.1 449.49 374.29 449.49 378.47 481.12 356.27 481.12 352.1"></polygon><polygon class="cls-8" points="494.37 353.67 483.07 361.6 483.07 365.77 494.37 357.84 494.37 353.67"></polygon><polygon class="cls-8" points="481.12 362.97 449.49 385.15 449.49 389.33 481.12 367.13 481.12 362.97"></polygon><polygon class="cls-8" points="481.12 373.83 449.49 396.02 449.49 400.19 481.12 378 481.12 373.83"></polygon></g><g><polygon class="cls-8" points="494.37 374.79 483.07 382.72 483.07 386.89 494.37 378.96 494.37 374.79"></polygon><polygon class="cls-8" points="497.1 372.87 497.1 377.04 500.29 374.81 500.29 370.64 497.1 372.87"></polygon><polygon class="cls-8" points="481.12 384.08 449.49 406.27 449.49 410.44 481.12 388.25 481.12 384.08"></polygon><polygon class="cls-8" points="494.37 385.66 483.07 393.58 483.07 397.75 494.37 389.82 494.37 385.66"></polygon><polygon class="cls-8" points="481.12 394.95 449.49 417.14 449.49 421.31 481.12 399.12 481.12 394.95"></polygon><polygon class="cls-8" points="481.12 405.82 449.49 428 449.49 432.17 481.12 409.98 481.12 405.82"></polygon></g><g><polygon class="cls-8" points="494.37 406.77 483.07 414.69 483.07 418.87 494.37 410.94 494.37 406.77"></polygon><polygon class="cls-8" points="497.1 404.85 497.1 409.02 500.29 406.78 500.29 402.61 497.1 404.85"></polygon><polygon class="cls-8" points="481.12 416.06 449.49 438.25 449.49 442.42 481.12 420.23 481.12 416.06"></polygon><polygon class="cls-8" points="494.37 417.63 483.07 425.56 483.07 429.73 494.37 421.81 494.37 417.63"></polygon><polygon class="cls-8" points="481.12 426.93 449.49 449.12 449.49 453.29 481.12 431.1 481.12 426.93"></polygon><polygon class="cls-8" points="481.12 437.79 449.49 459.99 449.49 464.15 481.12 441.96 481.12 437.79"></polygon></g></g></g><g><polygon class="cls-27" points="262.9 654.92 154.18 578.65 154.18 203.69 262.9 279.95 262.9 654.92"></polygon><polygon class="cls-2" points="262.9 654.92 371.63 578.65 371.63 203.69 262.9 279.95 262.9 654.92"></polygon><polygon class="cls-11" points="262.9 127.36 262.9 127.36 262.9 127.36 262.9 127.36 154.18 203.75 262.9 280.02 262.9 280.02 262.9 280.02 262.9 280.02 371.63 203.75 262.9 127.36"></polygon><g class="cls-20"><polygon class="cls-26" points="271.88 301.97 371.63 232 371.63 220.53 271.88 290.5 271.88 301.97"></polygon><polygon class="cls-26" points="271.88 331.41 371.63 261.44 371.63 249.97 271.88 319.94 271.88 331.41"></polygon><polygon class="cls-26" points="271.88 360.84 371.63 290.88 371.63 279.41 271.88 349.38 271.88 360.84"></polygon><polygon class="cls-26" points="271.88 390.28 371.63 320.31 371.63 308.84 271.88 378.81 271.88 390.28"></polygon><polygon class="cls-26" points="271.88 419.71 371.63 349.74 371.63 338.28 271.88 408.25 271.88 419.71"></polygon><polygon class="cls-26" points="271.88 449.16 371.63 379.19 371.63 367.71 271.88 437.68 271.88 449.16"></polygon></g><g class="cls-20"><polygon class="cls-26" points="271.88 477.61 371.63 407.64 371.63 396.17 271.88 466.14 271.88 477.61"></polygon><polygon class="cls-26" points="271.88 507.04 371.63 437.07 371.63 425.61 271.88 495.58 271.88 507.04"></polygon><polygon class="cls-26" points="271.88 536.48 371.63 466.51 371.63 455.04 271.88 525.01 271.88 536.48"></polygon><polygon class="cls-26" points="271.88 565.92 371.63 495.95 371.63 484.48 271.88 554.45 271.88 565.92"></polygon><polygon class="cls-26" points="271.88 595.35 371.63 525.39 371.63 513.92 271.88 583.89 271.88 595.35"></polygon><polygon class="cls-26" points="271.88 624.79 371.63 554.82 371.63 543.35 271.88 613.32 271.88 624.79"></polygon></g><g><polygon class="cls-40" points="262.9 260.15 189.04 208.33 189.04 199.32 262.9 251.14 262.9 260.15"></polygon><polygon class="cls-13" points="262.9 260.15 336.76 208.33 336.76 199.32 262.9 251.14 262.9 260.15"></polygon><polygon class="cls-30" points="262.9 147.46 262.9 147.46 262.9 147.46 262.9 147.46 189.04 199.36 262.9 251.17 262.9 251.17 262.9 251.17 262.9 251.17 336.76 199.36 262.9 147.46"></polygon></g><g class="cls-20"><polygon class="cls-26" points="265.95 172.87 265.95 172.87 265.95 172.87 265.95 172.87 222.49 203.4 227.02 206.6 227.02 206.6 227.02 206.6 227.02 206.6 270.47 176.12 265.95 172.87"></polygon><polygon class="cls-26" points="274.16 178.73 274.16 178.72 274.16 178.72 274.16 178.73 230.69 209.26 235.23 212.46 235.23 212.46 235.23 212.46 235.23 212.46 278.69 181.97 274.16 178.73"></polygon><polygon class="cls-26" points="282.37 184.59 282.37 184.58 282.37 184.58 282.37 184.59 238.91 215.12 243.44 218.32 243.44 218.32 243.44 218.32 243.44 218.32 286.9 187.83 282.37 184.59"></polygon><polygon class="cls-26" points="290.58 190.44 290.58 190.44 290.58 190.44 290.58 190.44 247.12 220.98 251.65 224.18 251.65 224.18 251.65 224.18 251.65 224.18 295.11 193.69 290.58 190.44"></polygon><polygon class="cls-26" points="298.79 196.3 298.79 196.3 298.79 196.3 298.79 196.3 255.34 226.84 259.87 230.03 259.87 230.03 259.87 230.03 259.87 230.03 303.32 199.55 298.79 196.3"></polygon></g></g></g><g><g><g><g><path class="cls-4" d="M652.89,417.37c.02,2.56,6,62.94,8.42,81.22,2.33,17.66,7.43,61.86,7.43,77.9,0,.92,3.33,3.47,8.73,4.53,3.66,.72,9.48-2.44,9.48-3.66l-1.1-159.99h-32.97Z"></path><path class="cls-4" d="M673.52,572.99h-13.78c-16.49,0-4.72,12.77,7.11,12.77h16.06s4.05,.06,4.05-2.96v-9.82h-13.44Z"></path></g><g><path class="cls-4" d="M622.76,417.37c.12,4.81,0,12.5,0,23.11,0,22.61,2.6,54.51,5.02,72.79,2.34,17.66,10.75,61.86,10.75,77.9,0,.92,3.33,3.47,8.73,4.53,3.66,.72,9.48-2.44,9.48-3.66l-.32-174.67h-33.67Z"></path><path class="cls-4" d="M643.31,587.67h-13.79c-16.48,0-4.71,12.77,7.11,12.77h16.06s4.05,.06,4.05-2.96v-9.82h-13.44Z"></path></g></g><g><g><path class="cls-38" d="M638.56,264.87s-.19,21.72-.19,25.17c0,5.1,11.22-1.57,14.61-3.87,12.09-8.23,11.61-10.73,11.85-12.84v-8.45h-26.27Z"></path><path class="cls-9" d="M653.41,220.45c12.03,0,20.35,10.87,20.35,22.89v7.93c0,11.66-14.61,23.94-26.57,23.94h-10.18c-3.12,0-4.02-3.1-4.02-4.54,0-.88,.01-5.69,.01-8.37,0-1.86-1.03-2.55-1.36-2.66-2.08-.69-.79-2.25-.5-3.02,.98-2.7,1.59-4.43,1.87-7.1,.38-3.71-.36-8.41,0-10.81,1.34-8.98,8.39-18.27,20.41-18.27Z"></path></g><path class="cls-4" d="M673.76,243.34c0-12.02-7.36-22.89-20.51-22.89-10.98,0-19.49,8.24-20.25,18.27,.09-.15,7.24-3.67,7.24,8.49,0,8.37,.03,12.5,.03,12.5h3.09c-.12-1.27,.19-2.85,.97-4.41,1.48-2.96,4.06-4.67,5.77-3.82,1.7,.85,1.89,3.94,.4,6.9-.61,1.23-1.42,2.22-2.27,2.93h0c-2.16,2.83,9.1,10.63,12.17,9.67,0,0,13.36-7.44,13.36-19.72,0-1.91,0-7.93,0-7.93Z"></path><path class="cls-25" d="M664.89,271.82s2.71,1.04,2.19,3.84c0,0-16.7,12.31-33.03,24.12l4.31-10.04,26.53-17.92Z"></path></g><path class="cls-3" d="M667.08,275.66s-29.31,20.46-36.09,26.49c-3.62,3.22-5.92,17.64-5.92,38.87,0,5.81-2.98,57.24-4.28,73.78-.64,8.11-1.45,11.12,5.68,13.31,7.84,2.42,20.44,5.14,30.26,5.14,10.32,0,22.52-3.25,29.12-4.98,3.15-.83,5-5.86,3.57-12.28-3.63-16.34-10.44-51.97-10.44-64.75,0-22.22-1.04-34.91,0-48.94,1.45-19.55-7.78-24.57-11.92-26.65Z"></path><path class="cls-16" d="M638.37,290.04s-5.36,1.87-7.37,12.11l3.06-2.38s2.72-6.44,4.31-9.74Z"></path><g><path class="cls-4" d="M650.99,378.37c-1.39,6.21-7.54,10.12-13.75,8.74h0c-6.21-1.39-10.12-7.54-8.74-13.76l9.87-55.46c2.13-12.59,9.43-18.55,18.19-16.58,6.21,1.4,14.17,7.43,10.09,21.1l-15.66,55.96Z"></path><path class="cls-4" d="M622.76,440.48c-2.31,5.93-19.06-1.7-16.75-7.64l22.09-59.5c2.31-5.93,8.99-8.87,14.92-6.57h0c5.93,2.31,8.87,8.99,6.56,14.91l-26.81,58.79Z"></path></g></g><g><g><polygon class="cls-28" points="636.19 538.73 561.77 486.62 561.77 434.5 636.19 486.61 636.19 538.73"></polygon><polygon class="cls-23" points="636.19 538.73 644.29 532.95 644.29 480.83 636.19 486.61 636.19 538.73"></polygon><polygon class="cls-25" points="569.87 428.71 569.87 428.71 569.87 428.71 569.87 428.71 561.77 434.52 636.19 486.62 636.19 486.62 636.19 486.62 636.19 486.62 644.29 480.85 569.87 428.71"></polygon></g><g><polygon class="cls-23" points="591.2 452.2 595 449.49 595 443.92 591.2 441.24 591.2 452.2"></polygon><g><polygon class="cls-37" points="586.7 433.15 586.7 449.19 591.2 452.2 591.2 441.24 616.29 458.93 616.29 470.22 620.79 473.23 620.79 462.1 620.79 457.18 586.7 433.15"></polygon><polygon class="cls-23" points="624.59 454.47 624.59 454.47 624.59 454.47 620.79 457.18 620.79 473.23 624.59 470.52 624.59 454.47"></polygon><polygon class="cls-25" points="590.5 430.43 590.5 430.43 590.5 430.43 590.5 430.43 586.7 433.15 620.79 457.19 620.79 457.19 620.79 457.19 620.79 457.19 624.59 454.47 590.5 430.43"></polygon></g></g><polygon class="cls-7" points="636.19 503.16 593.1 498.46 561.77 451.05 561.77 434.5 636.19 486.61 636.19 503.16"></polygon></g><path class="cls-9" d="M606.61,436.42s-8.55,7.68-5.24,12.36c3.31,4.68,5.27,5.68,9.54,6.36,0,0,.12-7.38,5.51-6.43,0,0,2.39-1.58,3.05-6.12,0,0-7.41,.03-12.87-6.17Z"></path></g><g><g><path class="cls-4" d="M337.34,212.02l-36.64-25.16-40.06,20.52,53.37,36.51c8.24,6.18,20.89,2.47,27.06-5.77,6.18-8.24,4.5-19.93-3.74-26.11Z"></path><path class="cls-4" d="M351.94,362.17c-2.33,1.29-7.9,1.7-12.27-1.36-6.47-4.54-19.94-12.96-19.94-14.22v-15.28h21.34s.03,7.59,.03,8.12c0,.82,.11,3.92,1.78,5.48,2.38,2.24,3.65,3.67,7.51,7.43,4.05,3.94,4.43,8.25,1.56,9.84Z"></path><path class="cls-4" d="M341.09,338.8l5-108.72c0-8.28-6.71-14.99-14.99-14.99s-15,6.71-15,14.99l-1.57,13.98,5.2,99.5,21.37-4.77Z"></path></g><g><path class="cls-4" d="M312.18,230.24l-36.64-25.16-38.48-1.47s-1.22,8.14-2.1,13.66c-.96,5.96,2.98,10.07,10.8,15.49,8.96,6.21,43.11,29.36,43.11,29.36,8.24,6.18,20.89,2.47,27.07-5.77,6.17-8.24,4.5-19.93-3.74-26.11Z"></path><path class="cls-4" d="M326.78,380.38c-2.33,1.29-7.9,1.7-12.27-1.36-6.47-4.54-19.94-12.96-19.94-14.22v-15.28h21.34s.03,7.59,.03,8.12c0,.82,.11,3.92,1.78,5.48,2.38,2.24,3.65,3.67,7.51,7.43,4.05,3.94,4.43,8.25,1.55,9.85Z"></path><path class="cls-4" d="M315.94,357.02l4.99-108.72c0-8.28-6.71-14.99-14.99-14.99s-15,6.71-15,14.99l-1.57,13.98,5.2,99.5,21.37-4.76Z"></path></g><g><g><polygon class="cls-29" points="248.68 67.13 281.76 66.41 275.92 120.59 248.68 67.13"></polygon><g><path class="cls-3" d="M281.76,66.41l-5.84,54.18-.02,76.28s.02,10.58,8.32,8.09c9.81-2.94,14.89-12.31,15.04-16.41,.99-26.51,.98-26.07,.98-72.34l-.03-36.7-18.45-13.1Z"></path><path class="cls-3" d="M275.92,120.59l-27.24-53.47c-11.22,7.89-25.58,17.36-25.58,17.36l10.64,46.95,5.69,38.04s-3.3,30.01-4.85,46.98c-.79,8.64,24.3,8.49,35.25-1.06,4.84-4.22,6.09-12.58,6.09-19.75V120.59Z"></path></g><g><path class="cls-38" d="M275.85,29.19c-2.43-1.25-6.55-1.95-9.53-1.95-9.27,0-15.69,8.61-15.69,17.88v12.31c0,5.92,12.91,15.72,20.84,17.32,1.58,.32,2.55,.06,3.06-.22,1.12-.6,2.1-2.22,2.29-2.61,.83-1.66,1.17-5.03,1.17-5.03l-2.14-37.69Z"></path><path class="cls-9" d="M266.18,9.83c-11.38,0-19.26,10.57-19.26,21.95v8.03c0,12.73,18.44,29.52,29.82,29.52,5.69,0,6.77-6.84,9.08-13.89,1.68-5.1,.97-19.77,.97-26.03,0-11.37-9.23-19.58-20.61-19.58Z"></path><path class="cls-9" d="M250.94,44.13c1.58,3.16,1.39,6.46-.44,7.37-1.82,.91-4.58-.91-6.16-4.07-1.58-3.16-1.39-6.46,.43-7.37,1.82-.91,4.58,.91,6.16,4.07Z"></path></g><path class="cls-25" d="M250.63,57.43s.65,4.53,5.72,8.51c5.07,3.99,13.92,10.5,18.18,8.59l-9.23,7.73s-16.62-10.96-16.62-16.07-.17-6.98,1.95-8.77Z"></path><path class="cls-25" d="M277.62,69.27s-.48,3.5-3.09,5.26l5.94,4.18,1.29-12.3s-1.61,2.35-4.14,2.86Z"></path></g><path class="cls-4" d="M260.33,27.25l-10.55-6.96c-1.84,3.43-2.87,7.4-2.87,11.49v8.03c0,.08,.01,.16,.01,.24,3.7,1.37,4.91,6.64,4.91,6.64l2.96-2.08,.04-5.04c4.13-.53,7.61-7.82,8.92-10.93-2.12-.78-3.42-1.4-3.42-1.4Z"></path><path class="cls-4" d="M286.94,30.6h0c0-.42,0-.82,0-1.19,0-11.37-9.23-19.58-20.61-19.58-7.4,0-13.51,3.6-16.54,10.45l10.55,6.97s14.17,6.94,26.61,3.35Z"></path><g><polygon class="cls-16" points="276.59 81.43 276.59 75.98 274.53 74.53 267.79 80.18 272.23 84.48 276.59 81.43"></polygon><polygon class="cls-16" points="272.23 84.48 269.48 107.94 275.92 120.59 277.99 101.97 276.59 81.43 272.23 84.48"></polygon></g><polygon class="cls-17" points="257.3 118.47 242.29 71.62 246.49 68.6 275.92 120.59 257.3 118.47"></polygon><polygon class="cls-17" points="275.92 120.59 291.78 96.02 286.76 69.54 281.76 66.41 275.92 120.59"></polygon><polygon class="cls-3" points="275.92 120.59 259.11 116.84 242.29 71.62 248.68 67.13 275.92 120.59"></polygon><path class="cls-3" d="M275.92,120.59l13.79-25.22-2.95-25.83s-2.26-1.97-5-3.13l-5.84,54.18Z"></path></g><g><path class="cls-43" d="M322.91,145.49c-3.26-16.02-5.17-31.92-8.38-44.48-4.69-18.34-9.55-18.74-14.38-21.5v81.68l10.21,3.06c10.34,2.9,15.24-5.6,12.55-18.76Z"></path><polygon class="cls-43" points="309.69 163.97 262.21 150.5 265.88 138.45 314.25 148.07 309.69 163.97"></polygon><path class="cls-9" d="M285.75,156.24s9.99-11.45,12.15-8.66c0,0-.49-3.95-2.48-6.56-2.48-3.26-6.07-3.23-9.83-.64-3.76,2.59-6.16,4.24-6.16,4.24l6.31,11.62Z"></path><path class="cls-3" d="M286.94,159.39s-20.81,9.8-36.38,16.7c-4.29,1.9-9.02-.9-11.38-4.92-4.53-7.73-15.77-26.98-20.7-45.1-5.1-18.76-3.72-36.34,2.28-40.78,14.05-10.4,19.74,7.91,23.93,23.12,3.06,11.11,5.18,36.97,7.42,42.82,.83,2.17,1.96,2.76,3.8,2.07,11.34-4.28,24.57-11.69,24.57-11.69,0,0,8.09,7.96,6.45,17.77Z"></path><path class="cls-9" d="M265.52,139.64c-1.19-.33-11.46-3.17-22.21-2.99-1,.01-1.79,.83-1.78,1.83,.01,1,.8,1.76,1.83,1.78,1.01-.02,5.27,.75,6.25,.8-.48,.17-.96,.35-1.44,.57-.91,.42-1.31,1.48-.89,2.39,.41,.91,1.48,1.31,2.39,.89,.17-.08,.35-.13,.52-.2-.31,.21-.62,.4-.93,.63-.79,.61-.94,1.74-.33,2.53,.35,.47,.89,.71,1.43,.71,.39,0,.77-.12,1.1-.37,.27-.2,.53-.37,.8-.54-.3,.29-.59,.56-.87,.89-.65,.76-.55,1.9,.2,2.55,.34,.29,.76,.43,1.17,.43,.51,0,1.02-.21,1.37-.63,.68-.8,1.46-1.43,2.27-1.94-.46,.37-.91,.78-1.32,1.22-.67,.73-.62,1.87,.11,2.55,.35,.32,.78,.47,1.22,.47,.49,0,.98-.2,1.33-.59,1.25-1.36,2.94-2.27,4.71-2.88l3.07-10.09Z"></path></g></g></g></g></g></g></svg>